<?plantuml 1.2026.1?><svg xmlns="http://www.w3.org/2000/svg" xmlns:xlink="http://www.w3.org/1999/xlink" contentStyleType="text/css" data-diagram-type="ACTIVITY" height="1428px" preserveAspectRatio="none" style="width:3404px;height:1428px;background:#FFFFFF;" version="1.1" viewBox="0 0 3404 1428" width="3404px" zoomAndPan="magnify"><title>Sola &#8212; Trip Planning Data Flow</title><defs/><g><rect fill="#FFFFCC" height="26.6406" rx="2.5" ry="2.5" style="stroke:#FFDD88;stroke-width:3;" width="3393.4805" x="5" y="5"/><text fill="#000000" font-family="monospace" font-size="10" lengthAdjust="spacing" textLength="427.4561" x="10" y="20">You&#160;should&#160;use&#160;a&#160;bracket&#160;({)&#160;when&#160;defining&#160;your&#160;container&#160;'Group'&#160;into:</text><g class="title" data-source-line="4"><text fill="#000000" font-family="Verdana" font-size="22" font-weight="bold" lengthAdjust="spacing" textLength="385.7949" x="1500.3428" y="73.7588">Sola &#8212; Trip Planning Data Flow</text></g><rect fill="#FFFFFF" height="21.876" style="stroke:#FFFFFF;stroke-width:1;" width="3366.4805" x="10" y="91.6572"/><ellipse cx="338.7109" cy="128.5332" fill="#FFFFFF" rx="10" ry="10" style="stroke:#000000;stroke-width:1;"/><rect fill="#FFFFFF" height="34.584" rx="12.5" ry="12.5" style="stroke:#000000;stroke-width:1;" width="109.0508" x="284.1855" y="158.5332"/><text fill="#000000" font-family="Verdana" font-size="12" lengthAdjust="spacing" textLength="89.0508" x="294.1855" y="180.5977">Open Trips tab</text><rect fill="#FFFFFF" height="996.1943" style="stroke:#000000;stroke-width:1;" width="407.2363" x="16" y="425.2051"/><path d="M59.0723,425.2051 L59.0723,435.2197 L49.0723,445.2197 L16,445.2197" fill="none" style="stroke:#000000;stroke-width:1;"/><text fill="#000000" font-family="Verdana" font-size="14" lengthAdjust="spacing" textLength="33.0723" x="19" y="440.2803">into:</text><line style="stroke:#000000;stroke-width:1.5;" x1="95.6758" x2="407.2363" y1="764.3076" y2="764.3076"/><rect fill="#FFFFFF" height="34.584" rx="12.5" ry="12.5" style="stroke:#000000;stroke-width:1;" width="113.3516" x="39" y="844.3076"/><text fill="#000000" font-family="Verdana" font-size="12" lengthAdjust="spacing" textLength="93.3516" x="49" y="866.3721">Create new trip</text><line style="stroke:#000000;stroke-width:1.5;" x1="218.2686" x2="416.2363" y1="1044.6436" y2="1044.6436"/><rect fill="#FFFFFF" height="34.584" rx="12.5" ry="12.5" style="stroke:#000000;stroke-width:1;" width="111.834" x="162.3516" y="1066.1436"/><text fill="#000000" font-family="Verdana" font-size="12" lengthAdjust="spacing" textLength="91.834" x="172.3516" y="1088.208">View day detail</text><line style="stroke:#000000;stroke-width:1;" x1="10" x2="10" y1="91.6572" y2="1421.3994"/><rect fill="#FFFFFF" height="34.584" rx="12.5" ry="12.5" style="stroke:#000000;stroke-width:1;" width="169.8359" x="433.2363" y="213.1172"/><text fill="#000000" font-family="Verdana" font-size="12" lengthAdjust="spacing" textLength="149.8359" x="443.2363" y="235.1816">getTripsGrouped(userId)</text><line style="stroke:#000000;stroke-width:1;" x1="427.2363" x2="427.2363" y1="91.6572" y2="1421.3994"/><rect fill="#FFFFFF" height="92.9199" rx="12.5" ry="12.5" style="stroke:#000000;stroke-width:1;" width="212.041" x="858.1641" y="267.7012"/><text fill="#000000" font-family="Verdana" font-size="12" lengthAdjust="spacing" textLength="169.7344" x="868.1641" y="289.7656">SELECT trips.*, trip_stops.*</text><text fill="#000000" font-family="Verdana" font-size="12" lengthAdjust="spacing" textLength="65.8887" x="868.1641" y="304.3496">FROM trips</text><text fill="#000000" font-family="Verdana" font-size="12" lengthAdjust="spacing" textLength="192.041" x="868.1641" y="318.9336">LEFT JOIN trip_stops ON trip_id</text><text fill="#000000" font-family="Verdana" font-size="12" lengthAdjust="spacing" textLength="117.9375" x="868.1641" y="333.5176">WHERE user_id = ?</text><text fill="#000000" font-family="Verdana" font-size="12" lengthAdjust="spacing" textLength="113.2207" x="868.1641" y="348.1016">ORDER BY arriving</text><rect fill="#FFFFFF" height="34.584" rx="12.5" ry="12.5" style="stroke:#000000;stroke-width:1;" width="36.3477" x="946.0107" y="380.6211"/><text fill="#000000" font-family="Verdana" font-size="12" lengthAdjust="spacing" textLength="16.3477" x="956.0107" y="402.6855">---</text><rect fill="#FFFFFF" height="996.1943" style="stroke:#000000;stroke-width:1;" width="903.6523" x="613.0723" y="425.2051"/><path d="M656.1445,425.2051 L656.1445,435.2197 L646.1445,445.2197 L613.0723,445.2197" fill="none" style="stroke:#000000;stroke-width:1;"/><text fill="#000000" font-family="Verdana" font-size="14" lengthAdjust="spacing" textLength="33.0723" x="616.0723" y="440.2803">into:</text><rect fill="#FFFFFF" height="34.584" rx="12.5" ry="12.5" style="stroke:#000000;stroke-width:1;" width="155.3867" x="886.4912" y="462.2197"/><text fill="#000000" font-family="Verdana" font-size="12" lengthAdjust="spacing" textLength="135.3867" x="896.4912" y="484.2842">current (active status)</text><rect fill="#FFFFFF" height="34.584" rx="12.5" ry="12.5" style="stroke:#000000;stroke-width:1;" width="223.5664" x="852.4014" y="516.8037"/><text fill="#000000" font-family="Verdana" font-size="12" lengthAdjust="spacing" textLength="203.5664" x="862.4014" y="538.8682">upcoming (planned, future dates)</text><rect fill="#FFFFFF" height="34.584" rx="12.5" ry="12.5" style="stroke:#000000;stroke-width:1;" width="212.2461" x="858.0615" y="571.3877"/><text fill="#000000" font-family="Verdana" font-size="12" lengthAdjust="spacing" textLength="192.2461" x="868.0615" y="593.4521">past (completed or past dates);</text><rect fill="#FFFFFF" height="136.6719" rx="12.5" ry="12.5" style="stroke:#000000;stroke-width:1;" width="181.6309" x="625.0723" y="998.0596"/><text fill="#000000" font-family="Verdana" font-size="12" lengthAdjust="spacing" textLength="73.957" x="635.0723" y="1020.124">createTrip({</text><text fill="#000000" font-family="Verdana" font-size="12" lengthAdjust="spacing" textLength="153.1934" x="643.5098" y="1034.708">userId, destinationName,</text><text fill="#000000" font-family="Verdana" font-size="12" lengthAdjust="spacing" textLength="125.2852" x="643.5098" y="1049.292">countryIso2, cityId?,</text><text fill="#000000" font-family="Verdana" font-size="12" lengthAdjust="spacing" textLength="115.3594" x="643.5098" y="1063.876">arriving?, leaving?,</text><text fill="#000000" font-family="Verdana" font-size="12" lengthAdjust="spacing" textLength="134.9941" x="643.5098" y="1078.46">travelStyleTags, notes</text><text fill="#000000" font-family="Verdana" font-size="12" lengthAdjust="spacing" textLength="13.0664" x="635.0723" y="1093.0439">})</text><text fill="#000000" font-family="Verdana" font-size="12" lengthAdjust="spacing" textLength="111.7324" x="635.0723" y="1107.6279">INSERT INTO trips</text><text fill="#000000" font-family="Verdana" font-size="12" lengthAdjust="spacing" textLength="140.4316" x="635.0723" y="1122.2119">+ auto-calculate nights</text><rect fill="#FFFFFF" height="34.584" rx="12.5" ry="12.5" style="stroke:#000000;stroke-width:1;" width="106.7539" x="662.5107" y="1169.7314"/><text fill="#000000" font-family="Verdana" font-size="12" lengthAdjust="spacing" textLength="86.7539" x="672.5107" y="1191.7959">Returns trip.id</text><rect fill="#FFFFFF" height="107.5039" rx="12.5" ry="12.5" style="stroke:#000000;stroke-width:1;" width="209.0176" x="834.7031" y="1177.8115"/><text fill="#000000" font-family="Verdana" font-size="12" lengthAdjust="spacing" textLength="124.248" x="844.7031" y="1199.876">addTripSavedItem({</text><text fill="#000000" font-family="Verdana" font-size="12" lengthAdjust="spacing" textLength="109.8105" x="853.1406" y="1214.46">tripId, entityType,</text><text fill="#000000" font-family="Verdana" font-size="12" lengthAdjust="spacing" textLength="149.6133" x="853.1406" y="1229.0439">entityId, category, notes</text><text fill="#000000" font-family="Verdana" font-size="12" lengthAdjust="spacing" textLength="13.0664" x="844.7031" y="1243.6279">})</text><text fill="#000000" font-family="Verdana" font-size="12" lengthAdjust="spacing" textLength="189.0176" x="844.7031" y="1258.2119">INSERT INTO trip_saved_items</text><text fill="#000000" font-family="Verdana" font-size="12" lengthAdjust="spacing" textLength="169.1367" x="844.7031" y="1272.7959">ON CONFLICT DO NOTHING</text><rect fill="#FFFFFF" height="34.584" rx="12.5" ry="12.5" style="stroke:#000000;stroke-width:1;" width="125.5098" x="1100.2529" y="1115.5195"/><text fill="#000000" font-family="Verdana" font-size="12" lengthAdjust="spacing" textLength="105.5098" x="1110.2529" y="1137.584">Add journal entry</text><rect fill="#FFFFFF" height="92.9199" rx="12.5" ry="12.5" style="stroke:#000000;stroke-width:1;" width="182.5742" x="1071.7207" y="1185.1035"/><text fill="#000000" font-family="Verdana" font-size="12" lengthAdjust="spacing" textLength="106.0898" x="1081.7207" y="1207.168">createTripEntry({</text><text fill="#000000" font-family="Verdana" font-size="12" lengthAdjust="spacing" textLength="154.1367" x="1090.1582" y="1221.752">tripId, userId, entryType,</text><text fill="#000000" font-family="Verdana" font-size="12" lengthAdjust="spacing" textLength="125.4902" x="1090.1582" y="1236.3359">title, body, moodTag</text><text fill="#000000" font-family="Verdana" font-size="12" lengthAdjust="spacing" textLength="13.0664" x="1081.7207" y="1250.9199">})</text><text fill="#000000" font-family="Verdana" font-size="12" lengthAdjust="spacing" textLength="154.3945" x="1081.7207" y="1265.5039">INSERT INTO trip_entries</text><rect fill="#FFFFFF" height="34.584" rx="12.5" ry="12.5" style="stroke:#000000;stroke-width:1;" width="139.1504" x="1314.9346" y="1080.7275"/><text fill="#000000" font-family="Verdana" font-size="12" lengthAdjust="spacing" textLength="119.1504" x="1324.9346" y="1102.792">Find travel matches</text><rect fill="#FFFFFF" height="92.9199" rx="12.5" ry="12.5" style="stroke:#000000;stroke-width:1;" width="240.4297" x="1264.2949" y="1150.3115"/><text fill="#000000" font-family="Verdana" font-size="12" lengthAdjust="spacing" textLength="182.7715" x="1274.2949" y="1172.376">getTripOverlapMatches(tripId)</text><text fill="#000000" font-family="Verdana" font-size="12" lengthAdjust="spacing" textLength="220.4297" x="1274.2949" y="1186.96">SELECT FROM trip_overlap_matches</text><text fill="#000000" font-family="Verdana" font-size="12" lengthAdjust="spacing" textLength="143.4082" x="1274.2949" y="1201.5439">WHERE trip matches on</text><text fill="#000000" font-family="Verdana" font-size="12" lengthAdjust="spacing" textLength="140.6016" x="1274.2949" y="1216.1279">location + date overlap</text><text fill="#000000" font-family="Verdana" font-size="12" lengthAdjust="spacing" textLength="159.0645" x="1274.2949" y="1230.7119">EXCLUDING blocked users</text><rect fill="#FFFFFF" height="34.584" rx="12.5" ry="12.5" style="stroke:#000000;stroke-width:1;" width="170.2754" x="1299.3721" y="1278.2314"/><text fill="#000000" font-family="Verdana" font-size="12" lengthAdjust="spacing" textLength="150.2754" x="1309.3721" y="1300.2959">Show matching travelers</text><line style="stroke:#000000;stroke-width:1.5;" x1="820.7031" x2="1384.5098" y1="1347.3994" y2="1347.3994"/><line style="stroke:#000000;stroke-width:1.5;" x1="715.8877" x2="1069" y1="1367.3994" y2="1367.3994"/><ellipse cx="964.1846" cy="1398.3994" fill="none" rx="11" ry="11" style="stroke:#000000;stroke-width:1;"/><ellipse cx="964.1846" cy="1398.3994" fill="#FFFFFF" rx="6" ry="6" style="stroke:#000000;stroke-width:1;"/><line style="stroke:#000000;stroke-width:1;" x1="607.0723" x2="607.0723" y1="91.6572" y2="1421.3994"/><rect fill="#FFFFFF" height="996.1943" style="stroke:#000000;stroke-width:1;" width="234.2383" x="1526.7246" y="425.2051"/><path d="M1569.7969,425.2051 L1569.7969,435.2197 L1559.7969,445.2197 L1526.7246,445.2197" fill="none" style="stroke:#000000;stroke-width:1;"/><text fill="#000000" font-family="Verdana" font-size="14" lengthAdjust="spacing" textLength="33.0723" x="1529.7246" y="440.2803">into:</text><rect fill="#FFFFFF" height="34.584" rx="12.5" ry="12.5" style="stroke:#000000;stroke-width:1;" width="124.1973" x="1587.2451" y="625.9717"/><text fill="#000000" font-family="Verdana" font-size="12" lengthAdjust="spacing" textLength="104.1973" x="1597.2451" y="648.0361">Render trip cards</text><rect fill="#FFFFFF" height="63.752" rx="12.5" ry="12.5" style="stroke:#000000;stroke-width:1;" width="199.2383" x="1549.7246" y="680.5557"/><text fill="#000000" font-family="Verdana" font-size="12" lengthAdjust="spacing" textLength="179.2383" x="1559.7246" y="702.6201">CurrentTripCard (highlighted)</text><text fill="#000000" font-family="Verdana" font-size="12" lengthAdjust="spacing" textLength="122.0508" x="1559.7246" y="717.2041">UpcomingTrips (list)</text><text fill="#000000" font-family="Verdana" font-size="12" lengthAdjust="spacing" textLength="139.207" x="1559.7246" y="731.7881">PastTrips (expandable)</text><line style="stroke:#000000;stroke-width:1;" x1="1520.7246" x2="1520.7246" y1="91.6572" y2="1421.3994"/><rect fill="#FFFFFF" height="996.1943" style="stroke:#000000;stroke-width:1;" width="197" x="1770.9629" y="425.2051"/><path d="M1814.0352,425.2051 L1814.0352,435.2197 L1804.0352,445.2197 L1770.9629,445.2197" fill="none" style="stroke:#000000;stroke-width:1;"/><text fill="#000000" font-family="Verdana" font-size="14" lengthAdjust="spacing" textLength="33.0723" x="1773.9629" y="440.2803">into:</text><rect fill="#FFFFFF" height="49.168" rx="12.5" ry="12.5" style="stroke:#000000;stroke-width:1;" width="173" x="1782.9629" y="913.8916"/><text fill="#000000" font-family="Verdana" font-size="12" lengthAdjust="spacing" textLength="153" x="1792.9629" y="935.9561">Form: destination, dates,</text><text fill="#000000" font-family="Verdana" font-size="12" lengthAdjust="spacing" textLength="99.9961" x="1792.9629" y="950.54">style tags, notes</text><line style="stroke:#000000;stroke-width:1;" x1="1764.9629" x2="1764.9629" y1="91.6572" y2="1421.3994"/><rect fill="#FFFFFF" height="996.1943" style="stroke:#000000;stroke-width:1;" width="270.9238" x="1977.9629" y="425.2051"/><path d="M2021.0352,425.2051 L2021.0352,435.2197 L2011.0352,445.2197 L1977.9629,445.2197" fill="none" style="stroke:#000000;stroke-width:1;"/><text fill="#000000" font-family="Verdana" font-size="14" lengthAdjust="spacing" textLength="33.0723" x="1980.9629" y="440.2803">into:</text><rect fill="#FFFFFF" height="34.584" rx="12.5" ry="12.5" style="stroke:#000000;stroke-width:1;" width="115.2559" x="2000.9629" y="1239.3154"/><text fill="#000000" font-family="Verdana" font-size="12" lengthAdjust="spacing" textLength="95.2559" x="2010.9629" y="1261.3799">Navigate to [id]</text><rect fill="#FFFFFF" height="34.584" rx="12.5" ry="12.5" style="stroke:#000000;stroke-width:1;" width="110.668" x="2126.2188" y="784.3076"/><text fill="#000000" font-family="Verdana" font-size="12" lengthAdjust="spacing" textLength="90.668" x="2136.2188" y="806.3721">View trip detail</text><line style="stroke:#000000;stroke-width:1;" x1="1971.9629" x2="1971.9629" y1="91.6572" y2="1421.3994"/><rect fill="#FFFFFF" height="996.1943" style="stroke:#000000;stroke-width:1;" width="738.6777" x="2258.8867" y="425.2051"/><path d="M2301.959,425.2051 L2301.959,435.2197 L2291.959,445.2197 L2258.8867,445.2197" fill="none" style="stroke:#000000;stroke-width:1;"/><text fill="#000000" font-family="Verdana" font-size="14" lengthAdjust="spacing" textLength="33.0723" x="2261.8867" y="440.2803">into:</text><rect fill="#000000" height="6" rx="2.5" ry="2.5" style="stroke:#000000;stroke-width:1;" width="703.6777" x="2281.8867" y="838.8916"/><rect fill="#FFFFFF" height="49.168" rx="12.5" ry="12.5" style="stroke:#000000;stroke-width:1;" width="168.1074" x="2293.8867" y="864.8916"/><text fill="#000000" font-family="Verdana" font-size="12" lengthAdjust="spacing" textLength="148.1074" x="2303.8867" y="886.9561">getTripWithStops(tripId)</text><text fill="#000000" font-family="Verdana" font-size="12" lengthAdjust="spacing" textLength="144.0059" x="2303.8867" y="901.54">Trip + stops + city data</text><rect fill="#FFFFFF" height="49.168" rx="12.5" ry="12.5" style="stroke:#000000;stroke-width:1;" width="148.4082" x="2471.9941" y="864.8916"/><text fill="#000000" font-family="Verdana" font-size="12" lengthAdjust="spacing" textLength="128.4082" x="2481.9941" y="886.9561">getTripEntries(tripId)</text><text fill="#000000" font-family="Verdana" font-size="12" lengthAdjust="spacing" textLength="95.9355" x="2481.9941" y="901.54">Journal timeline</text><rect fill="#FFFFFF" height="49.168" rx="12.5" ry="12.5" style="stroke:#000000;stroke-width:1;" width="178.6719" x="2648.4023" y="864.8916"/><text fill="#000000" font-family="Verdana" font-size="12" lengthAdjust="spacing" textLength="158.6719" x="2658.4023" y="886.9561">getTripSavedItems(tripId)</text><text fill="#000000" font-family="Verdana" font-size="12" lengthAdjust="spacing" textLength="117.4688" x="2658.4023" y="901.54">Bookmarked places</text><rect fill="#FFFFFF" height="49.168" rx="12.5" ry="12.5" style="stroke:#000000;stroke-width:1;" width="136.4902" x="2837.0742" y="864.8916"/><text fill="#000000" font-family="Verdana" font-size="12" lengthAdjust="spacing" textLength="116.4902" x="2847.0742" y="886.9561">getTripDays(tripId)</text><text fill="#000000" font-family="Verdana" font-size="12" lengthAdjust="spacing" textLength="100.6055" x="2847.0742" y="901.54">Day-by-day plan</text><rect fill="#000000" height="6" rx="2.5" ry="2.5" style="stroke:#000000;stroke-width:1;" width="703.6777" x="2281.8867" y="934.0596"/><rect fill="#FFFFFF" height="34.584" rx="12.5" ry="12.5" style="stroke:#000000;stroke-width:1;" width="145.9063" x="2560.7725" y="975.0596"/><text fill="#000000" font-family="Verdana" font-size="12" lengthAdjust="spacing" textLength="125.9063" x="2570.7725" y="997.124">Render trip overview</text><line style="stroke:#000000;stroke-width:1;" x1="2252.8867" x2="2252.8867" y1="91.6572" y2="1421.3994"/><rect fill="#FFFFFF" height="996.1943" style="stroke:#000000;stroke-width:1;" width="362.752" x="3007.5645" y="425.2051"/><path d="M3050.6367,425.2051 L3050.6367,435.2197 L3040.6367,445.2197 L3007.5645,445.2197" fill="none" style="stroke:#000000;stroke-width:1;"/><text fill="#000000" font-family="Verdana" font-size="14" lengthAdjust="spacing" textLength="33.0723" x="3010.5645" y="440.2803">into:</text><rect fill="#FFFFFF" height="122.0879" rx="12.5" ry="12.5" style="stroke:#000000;stroke-width:1;" width="191.4277" x="3030.5645" y="1135.7275"/><text fill="#000000" font-family="Verdana" font-size="12" lengthAdjust="spacing" textLength="155.3379" x="3040.5645" y="1157.792">getItineraryBlocks(dayId)</text><text fill="#000000" font-family="Verdana" font-size="12" lengthAdjust="spacing" textLength="104.0684" x="3040.5645" y="1172.376">SELECT blocks.*,</text><text fill="#000000" font-family="Verdana" font-size="12" lengthAdjust="spacing" textLength="162.9902" x="3049.002" y="1186.96">places.name, places.image</text><text fill="#000000" font-family="Verdana" font-size="12" lengthAdjust="spacing" textLength="134.9121" x="3040.5645" y="1201.5439">FROM itinerary_blocks</text><text fill="#000000" font-family="Verdana" font-size="12" lengthAdjust="spacing" textLength="103.5527" x="3040.5645" y="1216.1279">LEFT JOIN places</text><text fill="#000000" font-family="Verdana" font-size="12" lengthAdjust="spacing" textLength="141.8555" x="3040.5645" y="1230.7119">WHERE trip_day_id = ?</text><text fill="#000000" font-family="Verdana" font-size="12" lengthAdjust="spacing" textLength="139.4063" x="3040.5645" y="1245.2959">ORDER BY order_index</text><rect fill="#FFFFFF" height="34.584" rx="12.5" ry="12.5" style="stroke:#000000;stroke-width:1;" width="115.2207" x="3068.668" y="1292.8154"/><text fill="#000000" font-family="Verdana" font-size="12" lengthAdjust="spacing" textLength="95.2207" x="3078.668" y="1314.8799">Render timeline</text><rect fill="#FFFFFF" height="34.584" rx="12.5" ry="12.5" style="stroke:#000000;stroke-width:1;" width="126.3242" x="3231.9922" y="1108.2275"/><text fill="#000000" font-family="Verdana" font-size="12" lengthAdjust="spacing" textLength="106.3242" x="3241.9922" y="1130.292">Save place to trip</text><line style="stroke:#000000;stroke-width:1;" x1="3001.5645" x2="3001.5645" y1="91.6572" y2="1421.3994"/><line style="stroke:#000000;stroke-width:1;" x1="3374.3164" x2="3374.3164" y1="91.6572" y2="1421.3994"/><line style="stroke:#000000;stroke-width:1;" x1="338.7109" x2="338.7109" y1="138.5332" y2="158.5332"/><polygon fill="#000000" points="334.7109,148.5332,338.7109,158.5332,342.7109,148.5332,338.7109,152.5332" style="stroke:#000000;stroke-width:1;"/><line style="stroke:#000000;stroke-width:1;" x1="218.2686" x2="218.2686" y1="1046.1436" y2="1066.1436"/><polygon fill="#000000" points="214.2686,1056.1436,218.2686,1066.1436,222.2686,1056.1436,218.2686,1060.1436" style="stroke:#000000;stroke-width:1;"/><line style="stroke:#000000;stroke-width:1;" x1="95.6758" x2="95.6758" y1="765.8076" y2="844.3076"/><polygon fill="#000000" points="91.6758,834.3076,95.6758,844.3076,99.6758,834.3076,95.6758,838.3076" style="stroke:#000000;stroke-width:1;"/><line style="stroke:#000000;stroke-width:1;" x1="964.1846" x2="964.1846" y1="360.6211" y2="380.6211"/><polygon fill="#000000" points="960.1846,370.6211,964.1846,380.6211,968.1846,370.6211,964.1846,374.6211" style="stroke:#000000;stroke-width:1;"/><line style="stroke:#000000;stroke-width:1;" x1="964.1846" x2="964.1846" y1="496.8037" y2="516.8037"/><polygon fill="#000000" points="960.1846,506.8037,964.1846,516.8037,968.1846,506.8037,964.1846,510.8037" style="stroke:#000000;stroke-width:1;"/><line style="stroke:#000000;stroke-width:1;" x1="964.1846" x2="964.1846" y1="551.3877" y2="571.3877"/><polygon fill="#000000" points="960.1846,561.3877,964.1846,571.3877,968.1846,561.3877,964.1846,565.3877" style="stroke:#000000;stroke-width:1;"/><line style="stroke:#000000;stroke-width:1;" x1="715.8877" x2="715.8877" y1="1134.7314" y2="1169.7314"/><polygon fill="#000000" points="711.8877,1159.7314,715.8877,1169.7314,719.8877,1159.7314,715.8877,1163.7314" style="stroke:#000000;stroke-width:1;"/><line style="stroke:#000000;stroke-width:1;" x1="1163.0078" x2="1163.0078" y1="1150.1035" y2="1185.1035"/><polygon fill="#000000" points="1159.0078,1175.1035,1163.0078,1185.1035,1167.0078,1175.1035,1163.0078,1179.1035" style="stroke:#000000;stroke-width:1;"/><line style="stroke:#000000;stroke-width:1;" x1="1384.5098" x2="1384.5098" y1="1115.3115" y2="1150.3115"/><polygon fill="#000000" points="1380.5098,1140.3115,1384.5098,1150.3115,1388.5098,1140.3115,1384.5098,1144.3115" style="stroke:#000000;stroke-width:1;"/><line style="stroke:#000000;stroke-width:1;" x1="1384.5098" x2="1384.5098" y1="1243.2314" y2="1278.2314"/><polygon fill="#000000" points="1380.5098,1268.2314,1384.5098,1278.2314,1388.5098,1268.2314,1384.5098,1272.2314" style="stroke:#000000;stroke-width:1;"/><line style="stroke:#000000;stroke-width:1;" x1="939.2119" x2="939.2119" y1="1285.3154" y2="1347.3994"/><polygon fill="#000000" points="935.2119,1337.3994,939.2119,1347.3994,943.2119,1337.3994,939.2119,1341.3994" style="stroke:#000000;stroke-width:1;"/><line style="stroke:#000000;stroke-width:1;" x1="1163.0078" x2="1163.0078" y1="1278.0234" y2="1347.3994"/><polygon fill="#000000" points="1159.0078,1337.3994,1163.0078,1347.3994,1167.0078,1337.3994,1163.0078,1341.3994" style="stroke:#000000;stroke-width:1;"/><line style="stroke:#000000;stroke-width:1;" x1="1384.5098" x2="1384.5098" y1="1312.8154" y2="1347.3994"/><polygon fill="#000000" points="1380.5098,1337.3994,1384.5098,1347.3994,1388.5098,1337.3994,1384.5098,1341.3994" style="stroke:#000000;stroke-width:1;"/><line style="stroke:#000000;stroke-width:1;" x1="1069" x2="1069" y1="1348.8994" y2="1367.3994"/><polygon fill="#000000" points="1065,1357.3994,1069,1367.3994,1073,1357.3994,1069,1361.3994" style="stroke:#000000;stroke-width:1;"/><line style="stroke:#000000;stroke-width:1;" x1="964.1846" x2="964.1846" y1="1368.8994" y2="1387.3994"/><polygon fill="#000000" points="960.1846,1377.3994,964.1846,1387.3994,968.1846,1377.3994,964.1846,1381.3994" style="stroke:#000000;stroke-width:1;"/><line style="stroke:#000000;stroke-width:1;" x1="964.1846" x2="964.1846" y1="415.2051" y2="462.2197"/><polygon fill="#000000" points="960.1846,452.2197,964.1846,462.2197,968.1846,452.2197,964.1846,456.2197" style="stroke:#000000;stroke-width:1;"/><line style="stroke:#000000;stroke-width:1;" x1="1649.3438" x2="1649.3438" y1="660.5557" y2="680.5557"/><polygon fill="#000000" points="1645.3438,670.5557,1649.3438,680.5557,1653.3438,670.5557,1649.3438,674.5557" style="stroke:#000000;stroke-width:1;"/><line style="stroke:#000000;stroke-width:1;" x1="2377.9404" x2="2377.9404" y1="844.8916" y2="864.8916"/><polygon fill="#000000" points="2373.9404,854.8916,2377.9404,864.8916,2381.9404,854.8916,2377.9404,858.8916" style="stroke:#000000;stroke-width:1;"/><line style="stroke:#000000;stroke-width:1;" x1="2546.1982" x2="2546.1982" y1="844.8916" y2="864.8916"/><polygon fill="#000000" points="2542.1982,854.8916,2546.1982,864.8916,2550.1982,854.8916,2546.1982,858.8916" style="stroke:#000000;stroke-width:1;"/><line style="stroke:#000000;stroke-width:1;" x1="2737.7383" x2="2737.7383" y1="844.8916" y2="864.8916"/><polygon fill="#000000" points="2733.7383,854.8916,2737.7383,864.8916,2741.7383,854.8916,2737.7383,858.8916" style="stroke:#000000;stroke-width:1;"/><line style="stroke:#000000;stroke-width:1;" x1="2905.3193" x2="2905.3193" y1="844.8916" y2="864.8916"/><polygon fill="#000000" points="2901.3193,854.8916,2905.3193,864.8916,2909.3193,854.8916,2905.3193,858.8916" style="stroke:#000000;stroke-width:1;"/><line style="stroke:#000000;stroke-width:1;" x1="2377.9404" x2="2377.9404" y1="914.0596" y2="934.0596"/><polygon fill="#000000" points="2373.9404,924.0596,2377.9404,934.0596,2381.9404,924.0596,2377.9404,928.0596" style="stroke:#000000;stroke-width:1;"/><line style="stroke:#000000;stroke-width:1;" x1="2546.1982" x2="2546.1982" y1="914.0596" y2="934.0596"/><polygon fill="#000000" points="2542.1982,924.0596,2546.1982,934.0596,2550.1982,924.0596,2546.1982,928.0596" style="stroke:#000000;stroke-width:1;"/><line style="stroke:#000000;stroke-width:1;" x1="2737.7383" x2="2737.7383" y1="914.0596" y2="934.0596"/><polygon fill="#000000" points="2733.7383,924.0596,2737.7383,934.0596,2741.7383,924.0596,2737.7383,928.0596" style="stroke:#000000;stroke-width:1;"/><line style="stroke:#000000;stroke-width:1;" x1="2905.3193" x2="2905.3193" y1="914.0596" y2="934.0596"/><polygon fill="#000000" points="2901.3193,924.0596,2905.3193,934.0596,2909.3193,924.0596,2905.3193,928.0596" style="stroke:#000000;stroke-width:1;"/><line style="stroke:#000000;stroke-width:1;" x1="2633.7256" x2="2633.7256" y1="940.0596" y2="975.0596"/><polygon fill="#000000" points="2629.7256,965.0596,2633.7256,975.0596,2637.7256,965.0596,2633.7256,969.0596" style="stroke:#000000;stroke-width:1;"/><line style="stroke:#000000;stroke-width:1;" x1="3126.2783" x2="3126.2783" y1="1257.8154" y2="1292.8154"/><polygon fill="#000000" points="3122.2783,1282.8154,3126.2783,1292.8154,3130.2783,1282.8154,3126.2783,1286.8154" style="stroke:#000000;stroke-width:1;"/><line style="stroke:#000000;stroke-width:1;" x1="338.7109" x2="338.7109" y1="193.1172" y2="198.1172"/><line style="stroke:#000000;stroke-width:1;" x1="338.7109" x2="518.1543" y1="198.1172" y2="198.1172"/><line style="stroke:#000000;stroke-width:1;" x1="518.1543" x2="518.1543" y1="198.1172" y2="213.1172"/><polygon fill="#000000" points="514.1543,203.1172,518.1543,213.1172,522.1543,203.1172,518.1543,207.1172" style="stroke:#000000;stroke-width:1;"/><line style="stroke:#000000;stroke-width:1;" x1="518.1543" x2="518.1543" y1="247.7012" y2="252.7012"/><line style="stroke:#000000;stroke-width:1;" x1="518.1543" x2="964.1846" y1="252.7012" y2="252.7012"/><line style="stroke:#000000;stroke-width:1;" x1="964.1846" x2="964.1846" y1="252.7012" y2="267.7012"/><polygon fill="#000000" points="960.1846,257.7012,964.1846,267.7012,968.1846,257.7012,964.1846,261.7012" style="stroke:#000000;stroke-width:1;"/><line style="stroke:#000000;stroke-width:1;" x1="964.1846" x2="964.1846" y1="605.9717" y2="610.9717"/><line style="stroke:#000000;stroke-width:1;" x1="964.1846" x2="1649.3438" y1="610.9717" y2="610.9717"/><line style="stroke:#000000;stroke-width:1;" x1="1649.3438" x2="1649.3438" y1="610.9717" y2="625.9717"/><polygon fill="#000000" points="1645.3438,615.9717,1649.3438,625.9717,1653.3438,615.9717,1649.3438,619.9717" style="stroke:#000000;stroke-width:1;"/><line style="stroke:#000000;stroke-width:1;" x1="95.6758" x2="95.6758" y1="878.8916" y2="896.3916"/><line style="stroke:#000000;stroke-width:1;" x1="95.6758" x2="1869.4629" y1="896.3916" y2="896.3916"/><line style="stroke:#000000;stroke-width:1;" x1="1869.4629" x2="1869.4629" y1="896.3916" y2="913.8916"/><polygon fill="#000000" points="1865.4629,903.8916,1869.4629,913.8916,1873.4629,903.8916,1869.4629,907.8916" style="stroke:#000000;stroke-width:1;"/><line style="stroke:#000000;stroke-width:1;" x1="1869.4629" x2="1869.4629" y1="963.0596" y2="980.5596"/><line style="stroke:#000000;stroke-width:1;" x1="1869.4629" x2="715.8877" y1="980.5596" y2="980.5596"/><line style="stroke:#000000;stroke-width:1;" x1="715.8877" x2="715.8877" y1="980.5596" y2="998.0596"/><polygon fill="#000000" points="711.8877,988.0596,715.8877,998.0596,719.8877,988.0596,715.8877,992.0596" style="stroke:#000000;stroke-width:1;"/><line style="stroke:#000000;stroke-width:1;" x1="715.8877" x2="715.8877" y1="1204.3154" y2="1221.8154"/><line style="stroke:#000000;stroke-width:1;" x1="715.8877" x2="2058.5908" y1="1221.8154" y2="1221.8154"/><line style="stroke:#000000;stroke-width:1;" x1="2058.5908" x2="2058.5908" y1="1221.8154" y2="1239.3154"/><polygon fill="#000000" points="2054.5908,1229.3154,2058.5908,1239.3154,2062.5908,1229.3154,2058.5908,1233.3154" style="stroke:#000000;stroke-width:1;"/><line style="stroke:#000000;stroke-width:1;" x1="2181.5527" x2="2181.5527" y1="818.8916" y2="823.8916"/><line style="stroke:#000000;stroke-width:1;" x1="2181.5527" x2="2633.7256" y1="823.8916" y2="823.8916"/><line style="stroke:#000000;stroke-width:1;" x1="2633.7256" x2="2633.7256" y1="823.8916" y2="838.8916"/><polygon fill="#000000" points="2629.7256,828.8916,2633.7256,838.8916,2637.7256,828.8916,2633.7256,832.8916" style="stroke:#000000;stroke-width:1;"/><line style="stroke:#000000;stroke-width:1;" x1="218.2686" x2="218.2686" y1="1100.7275" y2="1118.2275"/><line style="stroke:#000000;stroke-width:1;" x1="218.2686" x2="3126.2783" y1="1118.2275" y2="1118.2275"/><line style="stroke:#000000;stroke-width:1;" x1="3126.2783" x2="3126.2783" y1="1118.2275" y2="1135.7275"/><polygon fill="#000000" points="3122.2783,1125.7275,3126.2783,1135.7275,3130.2783,1125.7275,3126.2783,1129.7275" style="stroke:#000000;stroke-width:1;"/><line style="stroke:#000000;stroke-width:1;" x1="3295.1543" x2="3295.1543" y1="1142.8115" y2="1160.3115"/><line style="stroke:#000000;stroke-width:1;" x1="3295.1543" x2="939.2119" y1="1160.3115" y2="1160.3115"/><line style="stroke:#000000;stroke-width:1;" x1="939.2119" x2="939.2119" y1="1160.3115" y2="1177.8115"/><polygon fill="#000000" points="935.2119,1167.8115,939.2119,1177.8115,943.2119,1167.8115,939.2119,1171.8115" style="stroke:#000000;stroke-width:1;"/><line style="stroke:#000000;stroke-width:1;" x1="313.7383" x2="313.7383" y1="1046.1436" y2="1050.1436"/><line style="stroke:#000000;stroke-width:1;" x1="313.7383" x2="3295.1543" y1="1050.1436" y2="1050.1436"/><line style="stroke:#000000;stroke-width:1;" x1="3295.1543" x2="3295.1543" y1="1050.1436" y2="1108.2275"/><polygon fill="#000000" points="3291.1543,1098.2275,3295.1543,1108.2275,3299.1543,1098.2275,3295.1543,1102.2275" style="stroke:#000000;stroke-width:1;"/><line style="stroke:#000000;stroke-width:1;" x1="416.2363" x2="416.2363" y1="1046.1436" y2="1050.1436"/><line style="stroke:#000000;stroke-width:1;" x1="416.2363" x2="1163.0078" y1="1050.1436" y2="1050.1436"/><line style="stroke:#000000;stroke-width:1;" x1="1163.0078" x2="1163.0078" y1="1050.1436" y2="1115.5195"/><polygon fill="#000000" points="1159.0078,1105.5195,1163.0078,1115.5195,1167.0078,1105.5195,1163.0078,1109.5195" style="stroke:#000000;stroke-width:1;"/><line style="stroke:#000000;stroke-width:1;" x1="416.2363" x2="416.2363" y1="1046.1436" y2="1050.1436"/><line style="stroke:#000000;stroke-width:1;" x1="416.2363" x2="1384.5098" y1="1050.1436" y2="1050.1436"/><line style="stroke:#000000;stroke-width:1;" x1="1384.5098" x2="1384.5098" y1="1050.1436" y2="1080.7275"/><polygon fill="#000000" points="1380.5098,1070.7275,1384.5098,1080.7275,1388.5098,1070.7275,1384.5098,1074.7275" style="stroke:#000000;stroke-width:1;"/><line style="stroke:#000000;stroke-width:1;" x1="3126.2783" x2="3126.2783" y1="1327.3994" y2="1333.3994"/><line style="stroke:#000000;stroke-width:1;" x1="3126.2783" x2="820.7031" y1="1333.3994" y2="1333.3994"/><line style="stroke:#000000;stroke-width:1;" x1="820.7031" x2="820.7031" y1="1333.3994" y2="1347.3994"/><polygon fill="#000000" points="816.7031,1337.3994,820.7031,1347.3994,824.7031,1337.3994,820.7031,1341.3994" style="stroke:#000000;stroke-width:1;"/><line style="stroke:#000000;stroke-width:1;" x1="2633.7256" x2="2633.7256" y1="1009.6436" y2="1027.1436"/><line style="stroke:#000000;stroke-width:1;" x1="2633.7256" x2="407.2363" y1="1027.1436" y2="1027.1436"/><line style="stroke:#000000;stroke-width:1;" x1="407.2363" x2="407.2363" y1="1027.1436" y2="1044.6436"/><polygon fill="#000000" points="403.2363,1034.6436,407.2363,1044.6436,411.2363,1034.6436,407.2363,1038.6436" style="stroke:#000000;stroke-width:1;"/><line style="stroke:#000000;stroke-width:1;" x1="407.2363" x2="407.2363" y1="765.8076" y2="769.3076"/><line style="stroke:#000000;stroke-width:1;" x1="407.2363" x2="2181.5527" y1="769.3076" y2="769.3076"/><line style="stroke:#000000;stroke-width:1;" x1="2181.5527" x2="2181.5527" y1="769.3076" y2="784.3076"/><polygon fill="#000000" points="2177.5527,774.3076,2181.5527,784.3076,2185.5527,774.3076,2181.5527,778.3076" style="stroke:#000000;stroke-width:1;"/><line style="stroke:#000000;stroke-width:1;" x1="2058.5908" x2="2058.5908" y1="1273.8994" y2="1353.3994"/><line style="stroke:#000000;stroke-width:1;" x1="2058.5908" x2="715.8877" y1="1353.3994" y2="1353.3994"/><line style="stroke:#000000;stroke-width:1;" x1="715.8877" x2="715.8877" y1="1353.3994" y2="1367.3994"/><polygon fill="#000000" points="711.8877,1357.3994,715.8877,1367.3994,719.8877,1357.3994,715.8877,1361.3994" style="stroke:#000000;stroke-width:1;"/><line style="stroke:#000000;stroke-width:1;" x1="1649.3438" x2="1649.3438" y1="744.3076" y2="749.3076"/><line style="stroke:#000000;stroke-width:1;" x1="1649.3438" x2="338.7109" y1="749.3076" y2="749.3076"/><line style="stroke:#000000;stroke-width:1;" x1="338.7109" x2="338.7109" y1="749.3076" y2="764.3076"/><polygon fill="#000000" points="334.7109,754.3076,338.7109,764.3076,342.7109,754.3076,338.7109,758.3076" style="stroke:#000000;stroke-width:1;"/><text fill="#000000" font-family="Verdana" font-size="18" lengthAdjust="spacing" textLength="40.957" x="198.1396" y="109.7539">User</text><text fill="#000000" font-family="Verdana" font-size="18" lengthAdjust="spacing" textLength="128.1533" x="453.0776" y="109.7539">useTrips Hook</text><text fill="#000000" font-family="Verdana" font-size="18" lengthAdjust="spacing" textLength="82.4063" x="1022.6953" y="109.7539">tripApi.ts</text><text fill="#000000" font-family="Verdana" font-size="18" lengthAdjust="spacing" textLength="112.834" x="1586.4268" y="109.7539">Trips Screen</text><text fill="#000000" font-family="Verdana" font-size="18" lengthAdjust="spacing" textLength="70.5146" x="1833.2056" y="109.7539">new.tsx</text><text fill="#000000" font-family="Verdana" font-size="18" lengthAdjust="spacing" textLength="93.6299" x="2065.6099" y="109.7539">Trip Detail</text><text fill="#000000" font-family="Verdana" font-size="18" lengthAdjust="spacing" textLength="132.46" x="2560.9956" y="109.7539">Trip Detail [id]</text><text fill="#000000" font-family="Verdana" font-size="18" lengthAdjust="spacing" textLength="168.1787" x="3103.8511" y="109.7539">Day Detail [dayId]</text><?plantuml-src VLNRZXev47ttLrIqBv1fvc4VGQjHXakcemaT0PFiQhL2fks05xVTiWqphH0f7x5Vk5-IygMvP2P10jgk-wbJrQ_SXbSSQac58dOhL4qDhM15o-tQw9rYGosrWTycuKE84qvoc6j9uVzl_y72Y1e-IAgKK6iOKKTX8lKZ8OS7oys1M4UD8_sYvYheMd1qDK3npl9uljDwUo3zDNVX_1Q3rfnrK6vorlMg3k_VrEBQMTIRZ-_7mmNuEtlzEWiFI-kqFv79h7WVHUH-F5d0koAVdcb0aKw2aKztuzaOV1GymHzmGuhPQ3o3sx-06YFsMCw0zF13GaOWbDDzqeDoPmnN3ZgqT6BF0GjqEzj5oQukTULHwDGU3yuo-BnpEyE1KSU3IaqjMg9QBRdZ313OS1KLVAqHatbfE5TOxOmhnar86afgc1sG_Z1cu3M7U0MTZLXl97xHOvSyf2oYeuuKrdN91moIBlXJJHMZAyb3lDIbMWf70Ff3mp4LKFmnn1pWtG4F2FtJmSidsbHzODmweQWJMcKnzmo5rZN834VNDWEbyJ9OdpSF7PGXWC-bymNF0B7FsRdFAQru5eGb4j2P9hVwzmnAuPgStKH9swER32IdyIa8dA5xBkS-byKf5HHzxU9FFfsFPmlyMnI99m1NG7TEzqegovqCrNiiG_Q8FpPGsQ1xBLYeA51-n1qLCfGqnV1hR-Sq_2tOFuC89z2r7obK-2WId5Yaj_hHIx3ohZvhimr5jDFmIRZDt3Etuyrn788qc5v1fFHLmCLtWGwIYsFaawCnmYZufPjt6akZ4foek1IA_y9yZfYotF7gqiCjZcv5pHQPZ9GlOyT_uc94cqjZlEYjcXwZZJTMtXJ9tc9mmNozvsQF829X4Rb8MUHR8csBiFTq0XWLCS8HOHJc4UIOKevauuQQvbRgScixGHuJInjc5GIuOi8bf0glbITdUn0LNVCW3vj7j4wNqJX8Jeie6eNBk7t2BiB8xGRoakCMqeRvtOGeFCLwZf2SzUkIQQZZEnK3UJgsC_ni3b6JCdRHsZIF0B596NO3TtspQ6hUGX1llAn4lg-rQKxZbGRi-OWjhO-m59uziS8f38lfv3v7a4S5J8l5NJvz-s8rRnY3VnDDkTy4Folcj5OyqvjdjRHR9ZWvBocypZ9OQOQrL5epN1g_h8R7INentGbsAoqWgAWhDr7lfOJJL1J8R4dhzr7vOZuI3O-ljAMEkila-GSUjG51nsIGW66PueBm6ngITP2D_npUFumGz4Xo75-FJygrFz_en-ZDlynYEKdg1pIEtUc9-3r4lWC0?></g></svg>