<?plantuml 1.2026.1?><svg xmlns="http://www.w3.org/2000/svg" xmlns:xlink="http://www.w3.org/1999/xlink" contentStyleType="text/css" data-diagram-type="ACTIVITY" height="1788px" preserveAspectRatio="none" style="width:3074px;height:1788px;background:#FFFFFF;" version="1.1" viewBox="0 0 3074 1788" width="3074px" zoomAndPan="magnify"><title>Sola &#8212; Explore/Discover Feed Data Pipeline</title><defs/><g><g class="title" data-source-line="4"><text fill="#000000" font-family="Verdana" font-size="22" font-weight="bold" lengthAdjust="spacing" textLength="543.2754" x="1263.8647" y="37.1182">Sola &#8212; Explore/Discover Feed Data Pipeline</text></g><rect fill="#FFFFFF" height="21.876" style="stroke:#FFFFFF;stroke-width:1;" width="3051.0049" x="10" y="55.0166"/><ellipse cx="81.6055" cy="91.8926" fill="#FFFFFF" rx="10" ry="10" style="stroke:#000000;stroke-width:1;"/><rect fill="#FFFFFF" height="34.584" rx="12.5" ry="12.5" style="stroke:#000000;stroke-width:1;" width="131.2109" x="16" y="121.8926"/><text fill="#000000" font-family="Verdana" font-size="12" lengthAdjust="spacing" textLength="111.2109" x="26" y="143.957">Open Discover tab</text><rect fill="#FFFFFF" height="34.584" rx="12.5" ry="12.5" style="stroke:#000000;stroke-width:1;" width="127.6953" x="17.7578" y="1704.4617"/><text fill="#000000" font-family="Verdana" font-size="12" lengthAdjust="spacing" textLength="107.6953" x="27.7578" y="1726.5261">Interact with feed</text><ellipse cx="81.6055" cy="1770.0457" fill="none" rx="11" ry="11" style="stroke:#000000;stroke-width:1;"/><ellipse cx="81.6055" cy="1770.0457" fill="#FFFFFF" rx="6" ry="6" style="stroke:#000000;stroke-width:1;"/><line style="stroke:#000000;stroke-width:1;" x1="10" x2="10" y1="55.0166" y2="1781.0457"/><rect fill="#FFFFFF" height="34.584" rx="12.5" ry="12.5" style="stroke:#000000;stroke-width:1;" width="153.623" x="169.9644" y="176.4766"/><text fill="#000000" font-family="Verdana" font-size="12" lengthAdjust="spacing" textLength="133.623" x="179.9644" y="198.541">Initialize parallel fetch</text><line style="stroke:#000000;stroke-width:1;" x1="151.2109" x2="151.2109" y1="55.0166" y2="1781.0457"/><rect fill="#000000" height="6" rx="2.5" ry="2.5" style="stroke:#000000;stroke-width:1;" width="429.2773" x="346.3408" y="231.0605"/><rect fill="#FFFFFF" height="78.3359" rx="12.5" ry="12.5" style="stroke:#000000;stroke-width:1;" width="176.1816" x="358.3408" y="264.3525"/><text fill="#000000" font-family="Verdana" font-size="12" lengthAdjust="spacing" textLength="87.6445" x="368.3408" y="286.417">getCountries()</text><text fill="#000000" font-family="Verdana" font-size="12" lengthAdjust="spacing" textLength="156.1816" x="368.3408" y="301.001">SELECT * FROM countries</text><text fill="#000000" font-family="Verdana" font-size="12" lengthAdjust="spacing" textLength="144.375" x="368.3408" y="315.585">WHERE is_active = true</text><text fill="#000000" font-family="Verdana" font-size="12" lengthAdjust="spacing" textLength="139.4063" x="368.3408" y="330.1689">ORDER BY order_index</text><rect fill="#FFFFFF" height="92.9199" rx="12.5" ry="12.5" style="stroke:#000000;stroke-width:1;" width="219.0957" x="544.5225" y="257.0605"/><text fill="#000000" font-family="Verdana" font-size="12" lengthAdjust="spacing" textLength="199.0957" x="554.5225" y="279.125">getPopularCitiesWithCountry(12)</text><text fill="#000000" font-family="Verdana" font-size="12" lengthAdjust="spacing" textLength="194.8477" x="554.5225" y="293.709">SELECT cities.*, countries.name</text><text fill="#000000" font-family="Verdana" font-size="12" lengthAdjust="spacing" textLength="162.6152" x="554.5225" y="308.293">FROM cities JOIN countries</text><text fill="#000000" font-family="Verdana" font-size="12" lengthAdjust="spacing" textLength="194.6191" x="554.5225" y="322.877">WHERE cities.is_featured = true</text><text fill="#000000" font-family="Verdana" font-size="12" lengthAdjust="spacing" textLength="53.7656" x="554.5225" y="337.4609">LIMIT 12</text><rect fill="#000000" height="6" rx="2.5" ry="2.5" style="stroke:#000000;stroke-width:1;" width="429.2773" x="346.3408" y="369.9805"/><line style="stroke:#000000;stroke-width:1;" x1="340.3408" x2="340.3408" y1="55.0166" y2="1781.0457"/><rect fill="#000000" height="6" rx="2.5" ry="2.5" style="stroke:#000000;stroke-width:1;" width="546.9922" x="785.6182" y="395.9805"/><rect fill="#FFFFFF" height="78.3359" rx="12.5" ry="12.5" style="stroke:#000000;stroke-width:1;" width="235.7891" x="797.6182" y="421.9805"/><text fill="#000000" font-family="Verdana" font-size="12" lengthAdjust="spacing" textLength="140.0625" x="807.6182" y="444.0449">getExploreCollections()</text><text fill="#000000" font-family="Verdana" font-size="12" lengthAdjust="spacing" textLength="215.7891" x="807.6182" y="458.6289">SELECT * FROM explore_collections</text><text fill="#000000" font-family="Verdana" font-size="12" lengthAdjust="spacing" textLength="144.375" x="807.6182" y="473.2129">WHERE is_active = true</text><text fill="#000000" font-family="Verdana" font-size="12" lengthAdjust="spacing" textLength="139.4063" x="807.6182" y="487.7969">ORDER BY order_index</text><rect fill="#FFFFFF" height="63.752" rx="12.5" ry="12.5" style="stroke:#000000;stroke-width:1;" width="277.2031" x="1043.4072" y="429.2725"/><text fill="#000000" font-family="Verdana" font-size="12" lengthAdjust="spacing" textLength="257.2031" x="1053.4072" y="451.3369">getDestinationTags(entity_type, entity_id)</text><text fill="#000000" font-family="Verdana" font-size="12" lengthAdjust="spacing" textLength="200.8066" x="1053.4072" y="465.9209">SELECT * FROM destination_tags</text><text fill="#000000" font-family="Verdana" font-size="12" lengthAdjust="spacing" textLength="254.7598" x="1053.4072" y="480.5049">WHERE entity_type = ? AND entity_id = ?</text><rect fill="#000000" height="6" rx="2.5" ry="2.5" style="stroke:#000000;stroke-width:1;" width="546.9922" x="785.6182" y="520.3164"/><line style="stroke:#000000;stroke-width:1;" x1="779.6182" x2="779.6182" y1="55.0166" y2="1781.0457"/><rect fill="#000000" height="6" rx="2.5" ry="2.5" style="stroke:#000000;stroke-width:1;" width="934.2266" x="1342.6104" y="595.0007"/><rect fill="#FFFFFF" height="34.584" rx="12.5" ry="12.5" style="stroke:#000000;stroke-width:1;" width="232.0684" x="1354.6104" y="628.2927"/><text fill="#000000" font-family="Verdana" font-size="12" lengthAdjust="spacing" textLength="212.0684" x="1364.6104" y="650.3572">getSavedPlacesWithDetails(userId)</text><rect fill="#FFFFFF" height="49.168" rx="12.5" ry="12.5" style="stroke:#000000;stroke-width:1;" width="191.8555" x="1596.6787" y="621.0007"/><text fill="#000000" font-family="Verdana" font-size="12" lengthAdjust="spacing" textLength="149.8359" x="1606.6787" y="643.0652">getTripsGrouped(userId)</text><text fill="#000000" font-family="Verdana" font-size="12" lengthAdjust="spacing" textLength="171.8555" x="1606.6787" y="657.6492">&#8594; current / upcoming / past</text><rect fill="#FFFFFF" height="49.168" rx="12.5" ry="12.5" style="stroke:#000000;stroke-width:1;" width="153.6113" x="1816.5342" y="621.0007"/><text fill="#000000" font-family="Verdana" font-size="12" lengthAdjust="spacing" textLength="133.6113" x="1826.5342" y="643.0652">getRecentCity(userId)</text><text fill="#000000" font-family="Verdana" font-size="12" lengthAdjust="spacing" textLength="109.5" x="1826.5342" y="657.6492">&#8594; last viewed city</text><rect fill="#FFFFFF" height="49.168" rx="12.5" ry="12.5" style="stroke:#000000;stroke-width:1;" width="284.6914" x="1980.1455" y="621.0007"/><text fill="#000000" font-family="Verdana" font-size="12" lengthAdjust="spacing" textLength="264.6914" x="1990.1455" y="643.0652">getNewCommunityActivity(userId, lastVisit)</text><text fill="#000000" font-family="Verdana" font-size="12" lengthAdjust="spacing" textLength="193.3828" x="1990.1455" y="657.6492">&#8594; new replies on user's threads</text><rect fill="#000000" height="6" rx="2.5" ry="2.5" style="stroke:#000000;stroke-width:1;" width="934.2266" x="1342.6104" y="690.1687"/><polygon fill="#FFFFFF" points="1771.1404,546.3164,1848.3069,546.3164,1860.3069,558.3164,1848.3069,570.3164,1771.1404,570.3164,1759.1404,558.3164,1771.1404,546.3164" style="stroke:#000000;stroke-width:1;"/><text fill="#000000" font-family="Verdana" font-size="11" lengthAdjust="spacing" textLength="18.7935" x="1813.7236" y="581.3755">yes</text><text fill="#000000" font-family="Verdana" font-size="11" lengthAdjust="spacing" textLength="77.1665" x="1771.1404" y="562.6912">userId exists?</text><text fill="#000000" font-family="Verdana" font-size="11" lengthAdjust="spacing" textLength="13.6372" x="1860.3069" y="556.0068">no</text><polygon fill="#FFFFFF" points="1809.7236,716.1687,1821.7236,728.1687,1809.7236,740.1687,1797.7236,728.1687,1809.7236,716.1687" style="stroke:#000000;stroke-width:1;"/><line style="stroke:#000000;stroke-width:1;" x1="1336.6104" x2="1336.6104" y1="55.0166" y2="1781.0457"/><rect fill="#FFFFFF" height="34.584" rx="12.5" ry="12.5" style="stroke:#000000;stroke-width:1;" width="146.457" x="2370.584" y="760.1687"/><text fill="#000000" font-family="Verdana" font-size="12" lengthAdjust="spacing" textLength="126.457" x="2380.584" y="782.2332">Assemble feed zones</text><rect fill="#FFFFFF" height="389.4385" style="stroke:#000000;stroke-width:1;" width="263.9512" x="2311.8369" y="804.7527"/><path d="M2407.5664,804.7527 L2407.5664,814.7673 L2397.5664,824.7673 L2311.8369,824.7673" fill="none" style="stroke:#000000;stroke-width:1;"/><text fill="#000000" font-family="Verdana" font-size="14" lengthAdjust="spacing" textLength="85.7295" x="2314.8369" y="819.8279">Feed Layout</text><rect fill="#FFFFFF" height="63.752" rx="12.5" ry="12.5" style="stroke:#000000;stroke-width:1;" width="243.9512" x="2321.8369" y="841.7673"/><text fill="#000000" font-family="Verdana" font-size="12" lengthAdjust="spacing" textLength="161.0098" x="2331.8369" y="863.8318">1. Personal Zones (max 2)</text><text fill="#000000" font-family="Verdana" font-size="12" lengthAdjust="spacing" textLength="223.9512" x="2331.8369" y="878.4158">Priority: upcoming trip &#8594; community</text><text fill="#000000" font-family="Verdana" font-size="12" lengthAdjust="spacing" textLength="177.2754" x="2331.8369" y="892.9998">&#8594; saved places &#8594; recent city</text><rect fill="#FFFFFF" height="49.168" rx="12.5" ry="12.5" style="stroke:#000000;stroke-width:1;" width="189.7461" x="2348.9395" y="925.5193"/><text fill="#000000" font-family="Verdana" font-size="12" lengthAdjust="spacing" textLength="103.0195" x="2358.9395" y="947.5837">2. Countries Grid</text><text fill="#000000" font-family="Verdana" font-size="12" lengthAdjust="spacing" textLength="169.7461" x="2358.9395" y="962.1677">Continent-grouped, shuffled</text><rect fill="#FFFFFF" height="49.168" rx="12.5" ry="12.5" style="stroke:#000000;stroke-width:1;" width="140.9668" x="2373.3291" y="994.6873"/><text fill="#000000" font-family="Verdana" font-size="12" lengthAdjust="spacing" textLength="98.7363" x="2383.3291" y="1016.7517">3. Popular Cities</text><text fill="#000000" font-family="Verdana" font-size="12" lengthAdjust="spacing" textLength="120.9668" x="2383.3291" y="1031.3357">Date-seeded shuffle</text><rect fill="#FFFFFF" height="49.168" rx="12.5" ry="12.5" style="stroke:#000000;stroke-width:1;" width="149.7324" x="2368.9463" y="1063.8552"/><text fill="#000000" font-family="Verdana" font-size="12" lengthAdjust="spacing" textLength="129.7324" x="2378.9463" y="1085.9197">4. Collections Section</text><text fill="#000000" font-family="Verdana" font-size="12" lengthAdjust="spacing" textLength="99.0293" x="2378.9463" y="1100.5037">Editorial curated</text><rect fill="#FFFFFF" height="49.168" rx="12.5" ry="12.5" style="stroke:#000000;stroke-width:1;" width="146.8145" x="2370.4053" y="1133.0232"/><text fill="#000000" font-family="Verdana" font-size="12" lengthAdjust="spacing" textLength="126.8145" x="2380.4053" y="1155.0876">5. Community Signal</text><text fill="#000000" font-family="Verdana" font-size="12" lengthAdjust="spacing" textLength="107.8066" x="2380.4053" y="1169.6716">Thread count CTA</text><line style="stroke:#000000;stroke-width:1;" x1="2305.8369" x2="2305.8369" y1="55.0166" y2="1781.0457"/><rect fill="#FFFFFF" height="49.168" rx="12.5" ry="12.5" style="stroke:#000000;stroke-width:1;" width="174.9746" x="2585.7881" y="1214.1912"/><text fill="#000000" font-family="Verdana" font-size="12" lengthAdjust="spacing" textLength="91.8047" x="2595.7881" y="1236.2556">Cache with key</text><text fill="#000000" font-family="Verdana" font-size="12" lengthAdjust="spacing" textLength="154.9746" x="2595.7881" y="1250.8396">['useData', 'feed', userId]</text><rect fill="#FFFFFF" height="34.584" rx="12.5" ry="12.5" style="stroke:#000000;stroke-width:1;" width="112.8184" x="2616.8662" y="1283.3591"/><text fill="#000000" font-family="Verdana" font-size="12" lengthAdjust="spacing" textLength="92.8184" x="2626.8662" y="1305.4236">Stale time: 30s</text><line style="stroke:#000000;stroke-width:1;" x1="2579.7881" x2="2579.7881" y1="55.0166" y2="1781.0457"/><rect fill="#FFFFFF" height="34.584" rx="12.5" ry="12.5" style="stroke:#000000;stroke-width:1;" width="184.6895" x="2820.457" y="1337.9431"/><text fill="#000000" font-family="Verdana" font-size="12" lengthAdjust="spacing" textLength="164.6895" x="2830.457" y="1360.0076">Render FeedItem[] by type</text><rect fill="#FFFFFF" height="301.9346" style="stroke:#000000;stroke-width:1;" width="284.0781" x="2770.7627" y="1382.5271"/><path d="M2859.834,1382.5271 L2859.834,1392.5417 L2849.834,1402.5417 L2770.7627,1402.5417" fill="none" style="stroke:#000000;stroke-width:1;"/><text fill="#000000" font-family="Verdana" font-size="14" lengthAdjust="spacing" textLength="79.0713" x="2773.7627" y="1397.6023">Card Types</text><rect fill="#FFFFFF" height="34.584" rx="12.5" ry="12.5" style="stroke:#000000;stroke-width:1;" width="203.0586" x="2811.2725" y="1419.5417"/><text fill="#000000" font-family="Verdana" font-size="12" lengthAdjust="spacing" textLength="183.0586" x="2821.2725" y="1441.6062">CountryCard &#8594; country/[slug]</text><rect fill="#FFFFFF" height="34.584" rx="12.5" ry="12.5" style="stroke:#000000;stroke-width:1;" width="154.4609" x="2835.5713" y="1474.1257"/><text fill="#000000" font-family="Verdana" font-size="12" lengthAdjust="spacing" textLength="134.4609" x="2845.5713" y="1496.1902">CityCard &#8594; city/[slug]</text><rect fill="#FFFFFF" height="34.584" rx="12.5" ry="12.5" style="stroke:#000000;stroke-width:1;" width="224.5508" x="2800.5264" y="1528.7097"/><text fill="#000000" font-family="Verdana" font-size="12" lengthAdjust="spacing" textLength="204.5508" x="2810.5264" y="1550.7742">CollectionCard &#8594; collection/[slug]</text><rect fill="#FFFFFF" height="34.584" rx="12.5" ry="12.5" style="stroke:#000000;stroke-width:1;" width="264.0781" x="2780.7627" y="1583.2937"/><text fill="#000000" font-family="Verdana" font-size="12" lengthAdjust="spacing" textLength="244.0781" x="2790.7627" y="1605.3582">PersonalZoneCard &#8594; context-dependent</text><rect fill="#FFFFFF" height="34.584" rx="12.5" ry="12.5" style="stroke:#000000;stroke-width:1;" width="245.4863" x="2790.0586" y="1637.8777"/><text fill="#000000" font-family="Verdana" font-size="12" lengthAdjust="spacing" textLength="225.4863" x="2800.0586" y="1659.9421">CommunitySignalCard &#8594; connect tab</text><line style="stroke:#000000;stroke-width:1;" x1="2764.7627" x2="2764.7627" y1="55.0166" y2="1781.0457"/><line style="stroke:#000000;stroke-width:1;" x1="3058.8408" x2="3058.8408" y1="55.0166" y2="1781.0457"/><line style="stroke:#000000;stroke-width:1;" x1="81.6055" x2="81.6055" y1="101.8926" y2="121.8926"/><polygon fill="#000000" points="77.6055,111.8926,81.6055,121.8926,85.6055,111.8926,81.6055,115.8926" style="stroke:#000000;stroke-width:1;"/><line style="stroke:#000000;stroke-width:1;" x1="81.6055" x2="81.6055" y1="1739.0457" y2="1759.0457"/><polygon fill="#000000" points="77.6055,1749.0457,81.6055,1759.0457,85.6055,1749.0457,81.6055,1753.0457" style="stroke:#000000;stroke-width:1;"/><line style="stroke:#000000;stroke-width:1;" x1="446.4316" x2="446.4316" y1="237.0605" y2="264.3525"/><polygon fill="#000000" points="442.4316,254.3525,446.4316,264.3525,450.4316,254.3525,446.4316,258.3525" style="stroke:#000000;stroke-width:1;"/><line style="stroke:#000000;stroke-width:1;" x1="654.0703" x2="654.0703" y1="237.0605" y2="257.0605"/><polygon fill="#000000" points="650.0703,247.0605,654.0703,257.0605,658.0703,247.0605,654.0703,251.0605" style="stroke:#000000;stroke-width:1;"/><line style="stroke:#000000;stroke-width:1;" x1="446.4316" x2="446.4316" y1="342.6885" y2="369.9805"/><polygon fill="#000000" points="442.4316,359.9805,446.4316,369.9805,450.4316,359.9805,446.4316,363.9805" style="stroke:#000000;stroke-width:1;"/><line style="stroke:#000000;stroke-width:1;" x1="654.0703" x2="654.0703" y1="349.9805" y2="369.9805"/><polygon fill="#000000" points="650.0703,359.9805,654.0703,369.9805,658.0703,359.9805,654.0703,363.9805" style="stroke:#000000;stroke-width:1;"/><line style="stroke:#000000;stroke-width:1;" x1="915.5127" x2="915.5127" y1="401.9805" y2="421.9805"/><polygon fill="#000000" points="911.5127,411.9805,915.5127,421.9805,919.5127,411.9805,915.5127,415.9805" style="stroke:#000000;stroke-width:1;"/><line style="stroke:#000000;stroke-width:1;" x1="1182.0088" x2="1182.0088" y1="401.9805" y2="429.2725"/><polygon fill="#000000" points="1178.0088,419.2725,1182.0088,429.2725,1186.0088,419.2725,1182.0088,423.2725" style="stroke:#000000;stroke-width:1;"/><line style="stroke:#000000;stroke-width:1;" x1="915.5127" x2="915.5127" y1="500.3164" y2="520.3164"/><polygon fill="#000000" points="911.5127,510.3164,915.5127,520.3164,919.5127,510.3164,915.5127,514.3164" style="stroke:#000000;stroke-width:1;"/><line style="stroke:#000000;stroke-width:1;" x1="1182.0088" x2="1182.0088" y1="493.0244" y2="520.3164"/><polygon fill="#000000" points="1178.0088,510.3164,1182.0088,520.3164,1186.0088,510.3164,1182.0088,514.3164" style="stroke:#000000;stroke-width:1;"/><line style="stroke:#000000;stroke-width:1;" x1="1470.6445" x2="1470.6445" y1="601.0007" y2="628.2927"/><polygon fill="#000000" points="1466.6445,618.2927,1470.6445,628.2927,1474.6445,618.2927,1470.6445,622.2927" style="stroke:#000000;stroke-width:1;"/><line style="stroke:#000000;stroke-width:1;" x1="1692.6064" x2="1692.6064" y1="601.0007" y2="621.0007"/><polygon fill="#000000" points="1688.6064,611.0007,1692.6064,621.0007,1696.6064,611.0007,1692.6064,615.0007" style="stroke:#000000;stroke-width:1;"/><line style="stroke:#000000;stroke-width:1;" x1="1893.3398" x2="1893.3398" y1="601.0007" y2="621.0007"/><polygon fill="#000000" points="1889.3398,611.0007,1893.3398,621.0007,1897.3398,611.0007,1893.3398,615.0007" style="stroke:#000000;stroke-width:1;"/><line style="stroke:#000000;stroke-width:1;" x1="2122.4912" x2="2122.4912" y1="601.0007" y2="621.0007"/><polygon fill="#000000" points="2118.4912,611.0007,2122.4912,621.0007,2126.4912,611.0007,2122.4912,615.0007" style="stroke:#000000;stroke-width:1;"/><line style="stroke:#000000;stroke-width:1;" x1="1470.6445" x2="1470.6445" y1="662.8767" y2="690.1687"/><polygon fill="#000000" points="1466.6445,680.1687,1470.6445,690.1687,1474.6445,680.1687,1470.6445,684.1687" style="stroke:#000000;stroke-width:1;"/><line style="stroke:#000000;stroke-width:1;" x1="1692.6064" x2="1692.6064" y1="670.1687" y2="690.1687"/><polygon fill="#000000" points="1688.6064,680.1687,1692.6064,690.1687,1696.6064,680.1687,1692.6064,684.1687" style="stroke:#000000;stroke-width:1;"/><line style="stroke:#000000;stroke-width:1;" x1="1893.3398" x2="1893.3398" y1="670.1687" y2="690.1687"/><polygon fill="#000000" points="1889.3398,680.1687,1893.3398,690.1687,1897.3398,680.1687,1893.3398,684.1687" style="stroke:#000000;stroke-width:1;"/><line style="stroke:#000000;stroke-width:1;" x1="2122.4912" x2="2122.4912" y1="670.1687" y2="690.1687"/><polygon fill="#000000" points="2118.4912,680.1687,2122.4912,690.1687,2126.4912,680.1687,2122.4912,684.1687" style="stroke:#000000;stroke-width:1;"/><line style="stroke:#000000;stroke-width:1;" x1="1809.7236" x2="1809.7236" y1="570.3164" y2="595.0007"/><polygon fill="#000000" points="1805.7236,585.0007,1809.7236,595.0007,1813.7236,585.0007,1809.7236,589.0007" style="stroke:#000000;stroke-width:1;"/><line style="stroke:#000000;stroke-width:1;" x1="1860.3069" x2="2286.8369" y1="558.3164" y2="558.3164"/><polygon fill="#000000" points="2282.8369,635.5847,2286.8369,645.5847,2290.8369,635.5847,2286.8369,639.5847" style="stroke:#000000;stroke-width:1;"/><line style="stroke:#000000;stroke-width:1;" x1="2286.8369" x2="2286.8369" y1="558.3164" y2="728.1687"/><line style="stroke:#000000;stroke-width:1;" x1="2286.8369" x2="1821.7236" y1="728.1687" y2="728.1687"/><polygon fill="#000000" points="1831.7236,724.1687,1821.7236,728.1687,1831.7236,732.1687,1827.7236,728.1687" style="stroke:#000000;stroke-width:1;"/><line style="stroke:#000000;stroke-width:1;" x1="1809.7236" x2="1809.7236" y1="696.1687" y2="716.1687"/><polygon fill="#000000" points="1805.7236,706.1687,1809.7236,716.1687,1813.7236,706.1687,1809.7236,710.1687" style="stroke:#000000;stroke-width:1;"/><line style="stroke:#000000;stroke-width:1;" x1="2443.8125" x2="2443.8125" y1="905.5193" y2="925.5193"/><polygon fill="#000000" points="2439.8125,915.5193,2443.8125,925.5193,2447.8125,915.5193,2443.8125,919.5193" style="stroke:#000000;stroke-width:1;"/><line style="stroke:#000000;stroke-width:1;" x1="2443.8125" x2="2443.8125" y1="974.6873" y2="994.6873"/><polygon fill="#000000" points="2439.8125,984.6873,2443.8125,994.6873,2447.8125,984.6873,2443.8125,988.6873" style="stroke:#000000;stroke-width:1;"/><line style="stroke:#000000;stroke-width:1;" x1="2443.8125" x2="2443.8125" y1="1043.8552" y2="1063.8552"/><polygon fill="#000000" points="2439.8125,1053.8552,2443.8125,1063.8552,2447.8125,1053.8552,2443.8125,1057.8552" style="stroke:#000000;stroke-width:1;"/><line style="stroke:#000000;stroke-width:1;" x1="2443.8125" x2="2443.8125" y1="1113.0232" y2="1133.0232"/><polygon fill="#000000" points="2439.8125,1123.0232,2443.8125,1133.0232,2447.8125,1123.0232,2443.8125,1127.0232" style="stroke:#000000;stroke-width:1;"/><line style="stroke:#000000;stroke-width:1;" x1="2443.8125" x2="2443.8125" y1="794.7527" y2="841.7673"/><polygon fill="#000000" points="2439.8125,831.7673,2443.8125,841.7673,2447.8125,831.7673,2443.8125,835.7673" style="stroke:#000000;stroke-width:1;"/><line style="stroke:#000000;stroke-width:1;" x1="2673.2754" x2="2673.2754" y1="1263.3591" y2="1283.3591"/><polygon fill="#000000" points="2669.2754,1273.3591,2673.2754,1283.3591,2677.2754,1273.3591,2673.2754,1277.3591" style="stroke:#000000;stroke-width:1;"/><line style="stroke:#000000;stroke-width:1;" x1="2912.8018" x2="2912.8018" y1="1454.1257" y2="1474.1257"/><polygon fill="#000000" points="2908.8018,1464.1257,2912.8018,1474.1257,2916.8018,1464.1257,2912.8018,1468.1257" style="stroke:#000000;stroke-width:1;"/><line style="stroke:#000000;stroke-width:1;" x1="2912.8018" x2="2912.8018" y1="1508.7097" y2="1528.7097"/><polygon fill="#000000" points="2908.8018,1518.7097,2912.8018,1528.7097,2916.8018,1518.7097,2912.8018,1522.7097" style="stroke:#000000;stroke-width:1;"/><line style="stroke:#000000;stroke-width:1;" x1="2912.8018" x2="2912.8018" y1="1563.2937" y2="1583.2937"/><polygon fill="#000000" points="2908.8018,1573.2937,2912.8018,1583.2937,2916.8018,1573.2937,2912.8018,1577.2937" style="stroke:#000000;stroke-width:1;"/><line style="stroke:#000000;stroke-width:1;" x1="2912.8018" x2="2912.8018" y1="1617.8777" y2="1637.8777"/><polygon fill="#000000" points="2908.8018,1627.8777,2912.8018,1637.8777,2916.8018,1627.8777,2912.8018,1631.8777" style="stroke:#000000;stroke-width:1;"/><line style="stroke:#000000;stroke-width:1;" x1="2912.8018" x2="2912.8018" y1="1372.5271" y2="1419.5417"/><polygon fill="#000000" points="2908.8018,1409.5417,2912.8018,1419.5417,2916.8018,1409.5417,2912.8018,1413.5417" style="stroke:#000000;stroke-width:1;"/><line style="stroke:#000000;stroke-width:1;" x1="81.6055" x2="81.6055" y1="156.4766" y2="161.4766"/><line style="stroke:#000000;stroke-width:1;" x1="81.6055" x2="246.7759" y1="161.4766" y2="161.4766"/><line style="stroke:#000000;stroke-width:1;" x1="246.7759" x2="246.7759" y1="161.4766" y2="176.4766"/><polygon fill="#000000" points="242.7759,166.4766,246.7759,176.4766,250.7759,166.4766,246.7759,170.4766" style="stroke:#000000;stroke-width:1;"/><line style="stroke:#000000;stroke-width:1;" x1="246.7759" x2="246.7759" y1="211.0605" y2="216.0605"/><line style="stroke:#000000;stroke-width:1;" x1="246.7759" x2="551.9795" y1="216.0605" y2="216.0605"/><line style="stroke:#000000;stroke-width:1;" x1="551.9795" x2="551.9795" y1="216.0605" y2="231.0605"/><polygon fill="#000000" points="547.9795,221.0605,551.9795,231.0605,555.9795,221.0605,551.9795,225.0605" style="stroke:#000000;stroke-width:1;"/><line style="stroke:#000000;stroke-width:1;" x1="551.9795" x2="551.9795" y1="375.9805" y2="380.9805"/><line style="stroke:#000000;stroke-width:1;" x1="551.9795" x2="1050.1143" y1="380.9805" y2="380.9805"/><line style="stroke:#000000;stroke-width:1;" x1="1050.1143" x2="1050.1143" y1="380.9805" y2="395.9805"/><polygon fill="#000000" points="1046.1143,385.9805,1050.1143,395.9805,1054.1143,385.9805,1050.1143,389.9805" style="stroke:#000000;stroke-width:1;"/><line style="stroke:#000000;stroke-width:1;" x1="1050.1143" x2="1050.1143" y1="526.3164" y2="531.3164"/><line style="stroke:#000000;stroke-width:1;" x1="1050.1143" x2="1809.7236" y1="531.3164" y2="531.3164"/><line style="stroke:#000000;stroke-width:1;" x1="1809.7236" x2="1809.7236" y1="531.3164" y2="546.3164"/><polygon fill="#000000" points="1805.7236,536.3164,1809.7236,546.3164,1813.7236,536.3164,1809.7236,540.3164" style="stroke:#000000;stroke-width:1;"/><line style="stroke:#000000;stroke-width:1;" x1="1809.7236" x2="1809.7236" y1="740.1687" y2="745.1687"/><line style="stroke:#000000;stroke-width:1;" x1="1809.7236" x2="2443.8125" y1="745.1687" y2="745.1687"/><line style="stroke:#000000;stroke-width:1;" x1="2443.8125" x2="2443.8125" y1="745.1687" y2="760.1687"/><polygon fill="#000000" points="2439.8125,750.1687,2443.8125,760.1687,2447.8125,750.1687,2443.8125,754.1687" style="stroke:#000000;stroke-width:1;"/><line style="stroke:#000000;stroke-width:1;" x1="2443.8125" x2="2443.8125" y1="1182.1912" y2="1199.1912"/><line style="stroke:#000000;stroke-width:1;" x1="2443.8125" x2="2673.2754" y1="1199.1912" y2="1199.1912"/><line style="stroke:#000000;stroke-width:1;" x1="2673.2754" x2="2673.2754" y1="1199.1912" y2="1214.1912"/><polygon fill="#000000" points="2669.2754,1204.1912,2673.2754,1214.1912,2677.2754,1204.1912,2673.2754,1208.1912" style="stroke:#000000;stroke-width:1;"/><line style="stroke:#000000;stroke-width:1;" x1="2673.2754" x2="2673.2754" y1="1317.9431" y2="1322.9431"/><line style="stroke:#000000;stroke-width:1;" x1="2673.2754" x2="2912.8018" y1="1322.9431" y2="1322.9431"/><line style="stroke:#000000;stroke-width:1;" x1="2912.8018" x2="2912.8018" y1="1322.9431" y2="1337.9431"/><polygon fill="#000000" points="2908.8018,1327.9431,2912.8018,1337.9431,2916.8018,1327.9431,2912.8018,1331.9431" style="stroke:#000000;stroke-width:1;"/><line style="stroke:#000000;stroke-width:1;" x1="2912.8018" x2="2912.8018" y1="1672.4617" y2="1689.4617"/><line style="stroke:#000000;stroke-width:1;" x1="2912.8018" x2="81.6055" y1="1689.4617" y2="1689.4617"/><line style="stroke:#000000;stroke-width:1;" x1="81.6055" x2="81.6055" y1="1689.4617" y2="1704.4617"/><polygon fill="#000000" points="77.6055,1694.4617,81.6055,1704.4617,85.6055,1694.4617,81.6055,1698.4617" style="stroke:#000000;stroke-width:1;"/><text fill="#000000" font-family="Verdana" font-size="18" lengthAdjust="spacing" textLength="40.957" x="60.127" y="73.1133">User</text><text fill="#000000" font-family="Verdana" font-size="18" lengthAdjust="spacing" textLength="179.1299" x="156.2109" y="73.1133">useFeedItems Hook</text><text fill="#000000" font-family="Verdana" font-size="18" lengthAdjust="spacing" textLength="228.3223" x="445.8184" y="73.1133">Critical Path (5s timeout)</text><text fill="#000000" font-family="Verdana" font-size="18" lengthAdjust="spacing" textLength="307.9688" x="904.1299" y="73.1133">Optional Path (Promise.allSettled)</text><text fill="#000000" font-family="Verdana" font-size="18" lengthAdjust="spacing" textLength="249.6006" x="1696.4233" y="73.1133">Authenticated User Context</text><text fill="#000000" font-family="Verdana" font-size="18" lengthAdjust="spacing" textLength="103.0518" x="2391.2866" y="73.1133">buildFeed()</text><text fill="#000000" font-family="Verdana" font-size="18" lengthAdjust="spacing" textLength="172.6611" x="2585.9448" y="73.1133">React Query Cache</text><text fill="#000000" font-family="Verdana" font-size="18" lengthAdjust="spacing" textLength="153.5977" x="2835.0029" y="73.1133">FlatList Renderer</text><?plantuml-src hLLVRzf847_tfvXh7m8L8PVq-c9KLPmXBLKQEE2kQgC8BVO0AzQxrkuwYNjKwbC_mEa-OJ_9pUuQGzJsxNZ1dl_pcz-CVx4Rp14AmRYCp9RBWccMmvAbsxLMfSmI9PI6fvV-5qMMMu4mKuB1jo__ml2X83MU3RX9rHrgk4JCOC0iWmalK729KRJxqw3UHSOoRQDuNA24njwoPOyiIeFESsGnD_16gUqkYaUIMyu4_qJbKL52e80LsdJZ719DofG9c32xWTOB0vRdg4hRtaKhfRSHGBn6cr0BLdCqhJP9PiEhOJA7Pt0v7R-3TAyZpVitm-aGk5cmrF8xX9TWTOca64y7mody_W6Kpb0lkCpmeUSp05ixp4AUYIfAmNH2HQ5vp-qc9AvQvnT7YLElxZxh779t9SjTdb2HryFRyUZw1zNLtbJa2fajDG7Tb7arUZUQm_b5BqAPWGSWseqBovLiC9febNE3NK9oXfR6c3t6gfub3LnWwZn_11e6eqLwiFeVu1kWiLmo5sxErgQ5adXMBMnLO0Vg5vvzNqrsy5jOScnAEGf0nRo2_lNW4CT97W7LBsaBfEEJ9L0TMo5HqkA3tKLy1IrYfnvbr3itrhngWxE6LeN6LLGZ61gPiJlC9eAbWGK3j8mBKmTezshpflVWDDUyCAzfsmhCzgPU-UthFv2MMbDjS0PbaT80vPeU2sRiJu9DCILp8cBrNIX1Nd37yPwQ939LFubmZVU9olEIrg_gktaUOdLyZB-uuVOGLk8zQ2o4ewwIu2nFQ1qt6bbcN8u6QHG6eILLsu7FLuJyikGYSvlV8Yx6VMCmNz9zMRahyab997_QVPeRJHYU-EDonIfQyoVmj-FEUHScg8rd-KTd3wsSFO1VkedcYgv45H-GeuKg0ghx1gFGWt5pSrUG1kS5siFOm1HVTA6v9V1Qyuo4ZYDquAGzNOVXTS1iojMADilxFAVYmbs0S1X8IASHJmtrGUbgOs_xculVh1JCmWDfXXctr0RrHqnm_FJcBvnvtGBC-9hw9_7SOnvE1oJpVY_wJ1XFaROI_YXHLv2mT8E4jF-7Uw8eRB6ARaveQkvgdtJWn85F_s7Yjxqedbb6Ct7tDORdlnftVYy5irUq3J2bIQ9svpqEZx2_upUtiAp0RU2Z6IPCPp0dgQb7M5zABm-ZyUzdDqQKwrlVhMFpGKylZvGDR4SXzg9ZmprH74-EJFsUdsPOkFAbhMFMs0PeZwqb1GvVhS_Dbuq-LHQrGzaZwW3iqUTE5T5_?></g></svg>